# xmcd
#
# Track frame offsets:
#	183
#	16915
#	37470
#	57898
#	78343
#	132430
#
# Disc length: 2258 seconds
#
# Revision: 0
# Processed by: cddbd v1.5.1PL0 Copyright (c) Steve Scherf et al.
# Submitted via: dBpowerAMP V4.0
#
DISCID=4c08d006
DTITLE=Alexander O'Neal - In The Middle (Single)
DYEAR=1993
DGENRE=Soul
TTITLE0=In The Middle (Radio MIx)
TTITLE1=In The Middle (Brown Mix)
TTITLE2=In The Middle (Rapless Mix)
TTITLE3=In The Middle (Brown Surrond Mix)
TTITLE4=In The Middle (The Qat Concept Mix)
TTITLE5=In The Middle (The Glam Slam Mix)
EXTD=
EXTT0=
EXTT1=
EXTT2=
EXTT3=
EXTT4=
EXTT5=
PLAYORDER=
